<?xml version="1.0" encoding="utf-8"?>
<!-- Generator: Adobe Illustrator 15.0.0, SVG Export Plug-In . SVG Version: 6.00 Build 0)  -->
<!DOCTYPE svg PUBLIC "-//W3C//DTD SVG 1.1//EN" "http://www.w3.org/Graphics/SVG/1.1/DTD/svg11.dtd">
<svg version="1.1" id="Layer_1" xmlns="http://www.w3.org/2000/svg" xmlns:xlink="http://www.w3.org/1999/xlink" x="0px" y="0px"
	 width="841.89px" height="595.28px" viewBox="0 0 841.89 595.28" enable-background="new 0 0 841.89 595.28" xml:space="preserve">
<path fill="#808080" d="M201.415,212.305c-4.787,15.06,2.306,30.988,15.833,35.577c13.556,4.579,28.407-3.923,33.194-18.991
	c4.794-15.071-2.306-30.999-15.84-35.577C221.072,188.739,206.213,197.23,201.415,212.305z"/>
<g>
	<g>
		<path fill="#616262" d="M190.326,223.669c-0.11,1.482-0.103,3.03,0.029,4.619c0.344,5.984,2.25,11.444,5.783,16.513
			c0.153,0.282,0.45,0.714,0.878,1.281c3.528,4.688,7.902,8.052,13.168,10.05c0.106,0.055,0.19,0.087,0.234,0.099
			c1.362,0.476,2.767,0.875,4.246,1.197c0.117,0.062,0.322,0.113,0.6,0.15c0.198,0.019,0.198,0.019,0.198,0.019
			c0.125,0.007,0.205,0.157,0.183,0.333c0,0,0-0.004-0.015,0.103c-1.091,7.279-1.742,11.042-1.742,11.049
			c-1.651,9.812-10.445,16.213-19.324,14.559c-3.082-0.556-6.156-1.105-9.219-1.654c0.238-2.21,0.311-4.344,0.223-6.397
			c-0.037-0.004-0.037,0-0.037,0c-0.007-0.037-0.007-0.099-0.004-0.139l0,0c-0.197-3.155-0.875-6.288-2.031-9.446
			c-0.864-2.262-0.864-2.262-0.864-2.262c-1.544-2.521-3.191-5.105-3.675-5.771l0,0c-3.542-4.699-7.891-7.967-13.051-9.922
			c-1.285-0.52-2.693-0.962-4.253-1.325c-0.282-0.041-0.461-0.091-0.578-0.139C161,246.561,161,246.561,161,246.561
			c-0.15-0.022-0.3-0.044-0.333-0.044c-0.037-0.003-0.073-0.011-0.092-0.011c-0.015-0.007-0.022-0.037-0.015-0.066
			c0.004-0.029,0.011-0.073,0.015-0.095c0.004-0.018,0.048-0.252,0.095-0.512c0.048-0.264,0.099-0.545,0.114-0.633
			s1.09-5.819,2.372-12.81c1.292-6.946,7.963-12.118,14.826-11.642c6.866,0.523,12.484,0.831,12.484,0.845
			c0,0.019,0,0.062-0.007,0.103l0,0C190.362,222.578,190.318,223.222,190.326,223.669z M259.914,227.728
			c-0.264,1.731-0.699,3.495-1.248,5.263c-1.991,6.782-5.61,12.517-10.749,17.212c-0.245,0.271-0.673,0.663-1.281,1.175
			c-5.014,4.246-10.471,6.599-16.257,7.272c-0.139,0.033-0.22,0.033-0.264,0.029c-1.479,0.143-2.994,0.176-4.523,0.121
			c-0.125,0.04-0.337,0.04-0.615-0.004c-0.205-0.025-0.205-0.029-0.205-0.025c-0.132-0.015-0.256,0.113-0.278,0.282
			c0,0,0,0.003-0.015,0.103c-1.068,7.422-1.72,11.261-1.712,11.265c-1.64,9.878,4.326,19.236,13.541,21.208
			c3.206,0.659,6.427,1.333,9.662,2.024c0.604-2.441,1.31-4.751,2.145-6.925c0.051,0.015,0.051,0.011,0.051,0.015
			c0.015-0.044,0.029-0.103,0.037-0.143l0,0c1.373-3.298,3.191-6.438,5.482-9.508c1.698-2.16,1.694-2.171,1.694-2.167
			c2.467-2.266,5.076-4.652,5.805-5.248l0,0c5.303-4.125,10.947-6.599,17.081-7.207c1.53-0.172,3.184-0.216,4.977-0.106
			c0.3,0.047,0.535,0.055,0.659,0.007c0.08,0.029,0.08,0.026,0.08,0.029c0.176,0.025,0.352,0.051,0.388,0.059
			c0.037,0,0.081,0.011,0.099,0.011c0.019,0,0.041-0.029,0.044-0.069c0.004-0.044,0.011-0.095,0.019-0.121
			c0-0.022,0.033-0.322,0.066-0.663c0.037-0.34,0.081-0.71,0.095-0.816c0.008-0.11,0.846-7.54,1.516-16.612
			c0.651-9.095-5.3-17.194-12.634-17.813c-7.378-0.647-13.278-1.061-13.278-1.032c0,0.022-0.007,0.069-0.011,0.106l0,0
			C260.155,226.483,260.034,227.237,259.914,227.728z M235.678,373.354L235.678,373.354c-0.007,0.035-0.015,0.088-0.018,0.102
			c-0.004,0.018,5.537,2.492,12.228,5.578c6.639,3.125,13.841-1.322,16.026-9.83c2.141-8.475,3.824-15.498,3.846-15.6
			c0.022-0.1,0.11-0.451,0.183-0.77s0.143-0.603,0.146-0.628c0.007-0.022,0.018-0.077,0.029-0.113
			c0.007-0.041,0.007-0.081-0.011-0.085c-0.015-0.007-0.059-0.021-0.091-0.032c-0.037-0.015-0.19-0.07-0.344-0.125
			c0,0,0-0.004-0.081-0.036c-0.117-0.092-0.307-0.187-0.596-0.289c-1.592-0.754-3.027-1.593-4.33-2.485
			c-5.219-3.44-9.52-8.271-12.993-14.376l0,0c-0.468-0.863-2.064-4.172-3.586-7.294c0,0,0.007-0.004-0.813-2.708
			c-1.105-3.777-1.728-7.415-1.867-11.013l0,0c0.007-0.044,0.007-0.113,0-0.153c0,0,0,0-0.037-0.008
			c-0.044-2.331,0.066-4.747,0.348-7.246c-3.209-0.787-6.405-1.556-9.585-2.306c-9.186-2.094-18.021,4.201-19.858,13.691
			c0-0.004-0.71,3.718-1.998,10.756c-0.019,0.106-0.015,0.106-0.019,0.106c-0.025,0.164,0.048,0.322,0.172,0.344
			c0,0,0-0.004,0.197,0.066c0.275,0.069,0.476,0.164,0.593,0.241c1.464,0.563,2.858,1.2,4.208,1.914
			c0.044,0.025,0.125,0.065,0.227,0.139c5.226,2.946,9.545,7.327,12.908,13.238c0.406,0.71,0.685,1.248,0.823,1.592
			c3.338,6.372,4.941,13.079,4.868,19.938c0.022,1.826-0.081,3.576-0.304,5.213C235.935,371.676,235.839,372.391,235.678,373.354z
			 M167.847,347.005c0.38-1.339,0.918-2.657,1.559-3.992c2.35-5.095,6.061-9.249,11.155-12.499c0.242-0.187,0.667-0.461,1.267-0.815
			c4.955-2.91,10.27-4.319,15.935-4.129c0.136-0.004,0.212-0.007,0.26,0.011c1.438,0.07,2.924,0.253,4.424,0.538
			c0.125-0.021,0.33,0.012,0.608,0.088c0.201,0.063,0.201,0.063,0.201,0.063c0.125,0.033,0.252-0.069,0.282-0.23
			c0,0,0,0,0.015-0.092c1.251-6.902,1.947-10.555,1.947-10.555c1.812-9.446-4.106-18.771-12.985-20.491
			c-3.089-0.619-6.163-1.229-9.23-1.826c-0.571,2.137-1.252,4.132-2.053,5.998c-0.047-0.011-0.047-0.011-0.047-0.015
			c-0.015,0.033-0.029,0.092-0.037,0.121l0,0c-1.318,2.825-3.063,5.453-5.271,7.931c-1.625,1.731-1.625,1.731-1.625,1.731
			c-2.346,1.771-4.831,3.564-5.526,4c0,0.004,0,0.004,0,0c-5.028,3.034-10.324,4.534-15.927,4.604
			c-1.398,0.041-2.898-0.029-4.509-0.219c-0.271-0.056-0.483-0.077-0.601-0.044c-0.066-0.033-0.066-0.033-0.066-0.033
			c-0.161-0.025-0.314-0.059-0.344-0.063c-0.037-0.004-0.073-0.011-0.092-0.019c-0.018-0.003-0.037,0.026-0.047,0.056
			c-0.007,0.029-0.015,0.069-0.015,0.088c-0.007,0.025-0.047,0.248-0.095,0.505c-0.047,0.26-0.103,0.538-0.125,0.618
			c-0.015,0.08-1.094,5.724-2.394,12.542c-1.303,6.829,3.309,13.432,10.226,14.962c6.917,1.526,12.568,3.008,12.568,2.99
			c0-0.019,0.007-0.056,0.019-0.085l0,0C167.518,347.945,167.693,347.371,167.847,347.005z"/>
	</g>
</g>
<g opacity="0.59">
	<path fill="#FFFFFF" d="M287.878,395.455c0,2.682-16.088,4.871-35.936,4.871c-19.851,0-35.939-2.189-35.939-4.871
		c0-2.693,16.089-4.865,35.939-4.865C271.79,390.59,287.878,392.762,287.878,395.455z"/>
	<path fill="#FDFDFD" d="M287.724,395.455c0,2.656-16.02,4.826-35.782,4.826c-19.766,0-35.785-2.17-35.785-4.826
		c0-2.67,16.019-4.82,35.785-4.82C271.705,390.635,287.724,392.785,287.724,395.455z"/>
	<path fill="#FBFBFB" d="M287.57,395.455c0,2.631-15.95,4.779-35.628,4.779c-19.68,0-35.63-2.148-35.63-4.779
		c0-2.645,15.95-4.775,35.63-4.775C271.62,390.68,287.57,392.811,287.57,395.455z"/>
	<path fill="#FAFAF9" d="M287.415,395.455c0,2.607-15.881,4.734-35.473,4.734c-19.595,0-35.475-2.127-35.475-4.734
		c0-2.619,15.88-4.73,35.475-4.73C271.534,390.725,287.415,392.836,287.415,395.455z"/>
	<path fill="#F9F8F8" d="M287.261,395.455c0,2.582-15.812,4.689-35.319,4.689c-19.509,0-35.32-2.107-35.32-4.689
		c0-2.594,15.811-4.686,35.32-4.686C271.449,390.77,287.261,392.861,287.261,395.455z"/>
	<path fill="#F7F7F6" d="M287.106,395.455c0,2.559-15.743,4.645-35.165,4.645c-19.424,0-35.166-2.086-35.166-4.645
		c0-2.57,15.741-4.641,35.166-4.641C271.363,390.814,287.106,392.885,287.106,395.455z"/>
	<path fill="#F6F5F5" d="M286.952,395.455c0,2.533-15.674,4.6-35.011,4.6c-19.339,0-35.011-2.066-35.011-4.6
		c0-2.545,15.672-4.594,35.011-4.594C271.278,390.861,286.952,392.91,286.952,395.455z"/>
	<path fill="#F5F4F4" d="M286.797,395.455c0,2.508-15.604,4.555-34.856,4.555c-19.254,0-34.856-2.047-34.856-4.555
		c0-2.52,15.602-4.549,34.856-4.549C271.193,390.906,286.797,392.936,286.797,395.455z"/>
	<path fill="#F4F3F3" d="M286.643,395.455c0,2.484-15.536,4.508-34.703,4.508c-19.168,0-34.701-2.023-34.701-4.508
		c0-2.494,15.532-4.504,34.701-4.504C271.107,390.951,286.643,392.961,286.643,395.455z"/>
	<path fill="#F3F2F1" d="M286.489,395.455c0,2.459-15.466,4.463-34.548,4.463c-19.083,0-34.546-2.004-34.546-4.463
		c0-2.471,15.463-4.459,34.546-4.459C271.022,390.996,286.489,392.984,286.489,395.455z"/>
	<path fill="#F2F1F0" d="M286.334,395.455c0,2.434-15.397,4.418-34.394,4.418c-18.999,0-34.392-1.984-34.392-4.418
		c0-2.445,15.393-4.414,34.392-4.414C270.937,391.041,286.334,393.01,286.334,395.455z"/>
	<path fill="#F1F0EF" d="M286.18,395.457c0,2.408-15.328,4.371-34.24,4.371c-18.913,0-34.237-1.963-34.237-4.371
		c0-2.422,15.324-4.371,34.237-4.371C270.852,391.086,286.18,393.035,286.18,395.457z"/>
	<path fill="#F0EFEE" d="M286.025,395.457c0,2.383-15.259,4.326-34.085,4.326c-18.828,0-34.082-1.943-34.082-4.326
		c0-2.398,15.254-4.324,34.082-4.324C270.766,391.133,286.025,393.059,286.025,395.457z"/>
	<path fill="#EFEEED" d="M285.871,395.457c0,2.357-15.19,4.279-33.932,4.279c-18.742,0-33.927-1.922-33.927-4.279
		c0-2.373,15.185-4.279,33.927-4.279C270.681,391.178,285.871,393.084,285.871,395.457z"/>
	<path fill="#EEEDEC" d="M285.717,395.457c0,2.334-15.121,4.234-33.777,4.234c-18.657,0-33.772-1.9-33.772-4.234
		c0-2.348,15.115-4.234,33.772-4.234C270.596,391.223,285.717,393.109,285.717,395.457z"/>
	<path fill="#EDECEB" d="M285.562,395.457c0,2.309-15.052,4.189-33.623,4.189c-18.572,0-33.617-1.881-33.617-4.189
		c0-2.322,15.045-4.189,33.617-4.189C270.51,391.268,285.562,393.135,285.562,395.457z"/>
	<path fill="#ECEBEA" d="M285.408,395.457c0,2.283-14.983,4.145-33.469,4.145c-18.487,0-33.463-1.861-33.463-4.145
		c0-2.299,14.976-4.145,33.463-4.145C270.425,391.313,285.408,393.158,285.408,395.457z"/>
	<path fill="#EBEAE9" d="M285.253,395.457c0,2.26-14.914,4.1-33.314,4.1c-18.402,0-33.308-1.84-33.308-4.1
		c0-2.273,14.906-4.1,33.308-4.1C270.34,391.357,285.253,393.184,285.253,395.457z"/>
	<path fill="#EAE9E8" d="M285.099,395.457c0,2.234-14.845,4.055-33.161,4.055s-33.153-1.82-33.153-4.055
		c0-2.248,14.837-4.055,33.153-4.055S285.099,393.209,285.099,395.457z"/>
	<path fill="#E9E8E7" d="M284.945,395.457c0,2.209-14.776,4.008-33.006,4.008c-18.231,0-32.999-1.799-32.999-4.008
		c0-2.225,14.768-4.008,32.999-4.008C270.169,391.449,284.945,393.232,284.945,395.457z"/>
	<path fill="#E8E7E6" d="M284.79,395.457c0,2.186-14.706,3.963-32.852,3.963c-18.146,0-32.844-1.777-32.844-3.963
		c0-2.199,14.698-3.963,32.844-3.963C270.084,391.494,284.79,393.258,284.79,395.457z"/>
	<path fill="#E7E6E5" d="M284.636,395.457c0,2.16-14.637,3.918-32.698,3.918s-32.689-1.758-32.689-3.918
		c0-2.174,14.628-3.918,32.689-3.918S284.636,393.283,284.636,395.457z"/>
	<path fill="#E6E5E4" d="M284.481,395.457c0,2.137-14.568,3.873-32.544,3.873c-17.975,0-32.534-1.736-32.534-3.873
		c0-2.148,14.559-3.873,32.534-3.873C269.913,391.584,284.481,393.309,284.481,395.457z"/>
	<path fill="#E5E4E3" d="M284.327,395.457c0,2.111-14.5,3.828-32.39,3.828s-32.379-1.717-32.379-3.828
		c0-2.125,14.489-3.828,32.379-3.828S284.327,393.332,284.327,395.457z"/>
	<path fill="#E4E3E2" d="M284.172,395.459c0,2.084-14.43,3.781-32.235,3.781c-17.804,0-32.224-1.697-32.224-3.781
		c0-2.102,14.42-3.785,32.224-3.785C269.743,391.674,284.172,393.357,284.172,395.459z"/>
	<path fill="#E3E2E2" d="M284.018,395.459c0,2.061-14.361,3.734-32.081,3.734c-17.719,0-32.07-1.674-32.07-3.734
		c0-2.076,14.351-3.74,32.07-3.74C269.657,391.719,284.018,393.383,284.018,395.459z"/>
	<path fill="#E2E1E1" d="M283.864,395.459c0,2.035-14.292,3.689-31.927,3.689c-17.634,0-31.915-1.654-31.915-3.689
		c0-2.053,14.281-3.693,31.915-3.693C269.572,391.766,283.864,393.406,283.864,395.459z"/>
	<path fill="#E1E0E0" d="M283.709,395.459c0,2.01-14.223,3.645-31.773,3.645c-17.549,0-31.76-1.635-31.76-3.645
		c0-2.027,14.211-3.648,31.76-3.648C269.487,391.811,283.709,393.432,283.709,395.459z"/>
	<path fill="#E0DFDF" d="M283.555,395.459c0,1.986-14.153,3.6-31.618,3.6c-17.464,0-31.605-1.613-31.605-3.6
		c0-2.002,14.142-3.604,31.605-3.604C269.401,391.855,283.555,393.457,283.555,395.459z"/>
	<path fill="#DFDEDE" d="M283.4,395.459c0,1.961-14.084,3.555-31.464,3.555c-17.378,0-31.45-1.594-31.45-3.555
		c0-1.977,14.072-3.559,31.45-3.559C269.316,391.9,283.4,393.482,283.4,395.459z"/>
	<path fill="#DEDDDD" d="M283.246,395.459c0,1.936-14.016,3.508-31.31,3.508c-17.293,0-31.296-1.572-31.296-3.508
		c0-1.953,14.002-3.514,31.296-3.514C269.23,391.945,283.246,393.506,283.246,395.459z"/>
	<path fill="#DDDCDC" d="M283.092,395.459c0,1.912-13.946,3.463-31.156,3.463c-17.208,0-31.141-1.551-31.141-3.463
		c0-1.928,13.933-3.469,31.141-3.469C269.146,391.99,283.092,393.531,283.092,395.459z"/>
	<path fill="#DCDBDB" d="M282.937,395.459c0,1.887-13.877,3.418-31.001,3.418c-17.123,0-30.986-1.531-30.986-3.418
		c0-1.902,13.864-3.424,30.986-3.424C269.06,392.035,282.937,393.557,282.937,395.459z"/>
	<path fill="#DBDBDA" d="M282.783,395.459c0,1.861-13.808,3.373-30.848,3.373c-17.037,0-30.831-1.512-30.831-3.373
		c0-1.877,13.794-3.377,30.831-3.377C268.975,392.082,282.783,393.582,282.783,395.459z"/>
	<path fill="#DADAD9" d="M282.628,395.459c0,1.838-13.739,3.328-30.693,3.328c-16.952,0-30.677-1.49-30.677-3.328
		c0-1.854,13.725-3.332,30.677-3.332C268.89,392.127,282.628,393.605,282.628,395.459z"/>
	<path fill="#D9D9D8" d="M282.474,395.459c0,1.813-13.67,3.283-30.539,3.283c-16.867,0-30.522-1.471-30.522-3.283
		c0-1.828,13.655-3.287,30.522-3.287C268.804,392.172,282.474,393.631,282.474,395.459z"/>
	<path fill="#D8D8D7" d="M282.32,395.459c0,1.787-13.601,3.236-30.385,3.236c-16.782,0-30.367-1.449-30.367-3.236
		c0-1.803,13.585-3.242,30.367-3.242C268.719,392.217,282.32,393.656,282.32,395.459z"/>
	<path fill="#D7D7D6" d="M282.165,395.459c0,1.764-13.532,3.191-30.23,3.191c-16.697,0-30.212-1.428-30.212-3.191
		c0-1.779,13.516-3.197,30.212-3.197C268.633,392.262,282.165,393.68,282.165,395.459z"/>
	<path fill="#D7D6D5" d="M282.011,395.461c0,1.736-13.462,3.145-30.077,3.145c-16.611,0-30.057-1.408-30.057-3.145
		c0-1.756,13.446-3.154,30.057-3.154C268.548,392.307,282.011,393.705,282.011,395.461z"/>
	<path fill="#D6D5D5" d="M281.856,395.461c0,1.713-13.394,3.1-29.922,3.1c-16.526,0-29.903-1.387-29.903-3.1
		c0-1.73,13.377-3.109,29.903-3.109C268.463,392.352,281.856,393.73,281.856,395.461z"/>
	<path fill="#D5D4D4" d="M281.702,395.461c0,1.688-13.325,3.055-29.769,3.055c-16.44,0-29.748-1.367-29.748-3.055
		c0-1.705,13.307-3.063,29.748-3.063C268.377,392.398,281.702,393.756,281.702,395.461z"/>
	<path fill="#D4D3D3" d="M281.547,395.461c0,1.662-13.255,3.01-29.614,3.01c-16.355,0-29.593-1.348-29.593-3.01
		c0-1.682,13.237-3.018,29.593-3.018C268.292,392.443,281.547,393.779,281.547,395.461z"/>
	<path fill="#D3D2D2" d="M281.393,395.461c0,1.639-13.186,2.963-29.46,2.963c-16.27,0-29.438-1.324-29.438-2.963
		c0-1.656,13.168-2.973,29.438-2.973C268.207,392.488,281.393,393.805,281.393,395.461z"/>
	<path fill="#D2D2D1" d="M281.239,395.461c0,1.613-13.117,2.918-29.306,2.918c-16.185,0-29.283-1.305-29.283-2.918
		c0-1.631,13.098-2.928,29.283-2.928C268.122,392.533,281.239,393.83,281.239,395.461z"/>
	<path fill="#D1D1D0" d="M281.084,395.461c0,1.588-13.048,2.873-29.151,2.873c-16.1,0-29.129-1.285-29.129-2.873
		c0-1.607,13.029-2.883,29.129-2.883C268.036,392.578,281.084,393.854,281.084,395.461z"/>
	<path fill="#D0D0CF" d="M280.93,395.461c0,1.564-12.979,2.828-28.997,2.828c-16.014,0-28.974-1.264-28.974-2.828
		c0-1.582,12.959-2.838,28.974-2.838C267.951,392.623,280.93,393.879,280.93,395.461z"/>
	<path fill="#CFCFCE" d="M280.775,395.461c0,1.539-12.91,2.783-28.843,2.783c-15.929,0-28.819-1.244-28.819-2.783
		c0-1.557,12.89-2.791,28.819-2.791C267.866,392.67,280.775,393.904,280.775,395.461z"/>
	<path fill="#CFCECE" d="M280.621,395.461c0,1.514-12.841,2.736-28.689,2.736c-15.844,0-28.664-1.223-28.664-2.736
		c0-1.531,12.82-2.746,28.664-2.746C267.78,392.715,280.621,393.93,280.621,395.461z"/>
	<path fill="#CECDCD" d="M280.467,395.461c0,1.49-12.772,2.691-28.535,2.691c-15.759,0-28.509-1.201-28.509-2.691
		c0-1.508,12.75-2.701,28.509-2.701C267.695,392.76,280.467,393.953,280.467,395.461z"/>
	<path fill="#CDCCCC" d="M280.312,395.461c0,1.465-12.702,2.646-28.38,2.646c-15.673,0-28.354-1.182-28.354-2.646
		c0-1.482,12.681-2.656,28.354-2.656C267.61,392.805,280.312,393.979,280.312,395.461z"/>
	<path fill="#CCCBCB" d="M280.158,395.461c0,1.439-12.633,2.602-28.226,2.602c-15.588,0-28.2-1.162-28.2-2.602
		c0-1.457,12.611-2.611,28.2-2.611C267.524,392.85,280.158,394.004,280.158,395.461z"/>
	<path fill="#CBCBCA" d="M280.003,395.461c0,1.416-12.564,2.557-28.072,2.557c-15.503,0-28.045-1.141-28.045-2.557
		c0-1.434,12.542-2.566,28.045-2.566C267.439,392.895,280.003,394.027,280.003,395.461z"/>
	<path fill="#CACAC9" d="M279.849,395.463c0,1.389-12.495,2.51-27.918,2.51c-15.417,0-27.89-1.121-27.89-2.51
		c0-1.41,12.473-2.523,27.89-2.523C267.354,392.939,279.849,394.053,279.849,395.463z"/>
	<path fill="#C9C9C8" d="M279.695,395.463c0,1.363-12.426,2.463-27.764,2.463c-15.333,0-27.736-1.1-27.736-2.463
		c0-1.385,12.403-2.477,27.736-2.477C267.269,392.986,279.695,394.078,279.695,395.463z"/>
	<path fill="#C9C8C8" d="M279.54,395.463c0,1.34-12.357,2.418-27.609,2.418c-15.247,0-27.581-1.078-27.581-2.418
		c0-1.359,12.333-2.432,27.581-2.432C267.183,393.031,279.54,394.104,279.54,395.463z"/>
	<path fill="#C8C7C7" d="M279.386,395.463c0,1.314-12.288,2.373-27.455,2.373c-15.162,0-27.426-1.059-27.426-2.373
		c0-1.336,12.264-2.387,27.426-2.387C267.098,393.076,279.386,394.127,279.386,395.463z"/>
	<path fill="#C7C6C6" d="M279.231,395.463c0,1.291-12.219,2.328-27.301,2.328c-15.077,0-27.271-1.037-27.271-2.328
		c0-1.311,12.194-2.342,27.271-2.342C267.013,393.121,279.231,394.152,279.231,395.463z"/>
	<path fill="#C6C6C5" d="M279.077,395.463c0,1.266-12.15,2.283-27.147,2.283c-14.992,0-27.116-1.018-27.116-2.283
		c0-1.285,12.125-2.297,27.116-2.297C266.927,393.166,279.077,394.178,279.077,395.463z"/>
	<path fill="#C5C5C4" d="M278.922,395.463c0,1.24-12.081,2.238-26.993,2.238c-14.906,0-26.961-0.998-26.961-2.238
		c0-1.26,12.056-2.252,26.961-2.252C266.842,393.211,278.922,394.203,278.922,395.463z"/>
	<path fill="#C4C4C3" d="M278.768,395.463c0,1.217-12.012,2.191-26.838,2.191c-14.821,0-26.807-0.975-26.807-2.191
		c0-1.236,11.986-2.207,26.807-2.207C266.756,393.256,278.768,394.227,278.768,395.463z"/>
	<path fill="#C3C3C3" d="M278.614,395.463c0,1.191-11.942,2.146-26.684,2.146c-14.736,0-26.652-0.955-26.652-2.146
		c0-1.211,11.917-2.16,26.652-2.16C266.671,393.303,278.614,394.252,278.614,395.463z"/>
	<path fill="#C2C2C2" d="M278.459,395.463c0,1.166-11.874,2.102-26.53,2.102c-14.65,0-26.497-0.936-26.497-2.102
		c0-1.186,11.847-2.115,26.497-2.115C266.586,393.348,278.459,394.277,278.459,395.463z"/>
	<path fill="#C2C1C1" d="M278.305,395.463c0,1.143-11.804,2.057-26.375,2.057c-14.565,0-26.342-0.914-26.342-2.057
		c0-1.162,11.777-2.07,26.342-2.07C266.5,393.393,278.305,394.301,278.305,395.463z"/>
	<path fill="#C1C1C0" d="M278.15,395.463c0,1.117-11.735,2.012-26.222,2.012c-14.48,0-26.188-0.895-26.188-2.012
		c0-1.137,11.708-2.025,26.188-2.025C266.416,393.438,278.15,394.326,278.15,395.463z"/>
	<path fill="#C0C0BF" d="M277.996,395.463c0,1.092-11.666,1.965-26.067,1.965c-14.395,0-26.033-0.873-26.033-1.965
		c0-1.111,11.638-1.98,26.033-1.98C266.33,393.482,277.996,394.352,277.996,395.463z"/>
	<path fill="#BFBFBF" d="M277.842,395.465c0,1.066-11.597,1.918-25.914,1.918c-14.309,0-25.878-0.852-25.878-1.918
		c0-1.088,11.569-1.938,25.878-1.938C266.245,393.527,277.842,394.377,277.842,395.465z"/>
	<path fill="#BEBEBE" d="M277.687,395.465c0,1.041-11.528,1.873-25.759,1.873c-14.224,0-25.723-0.832-25.723-1.873
		c0-1.064,11.499-1.893,25.723-1.893C266.159,393.572,277.687,394.4,277.687,395.465z"/>
	<path fill="#BDBDBD" d="M277.533,395.465c0,1.016-11.458,1.828-25.605,1.828c-14.139,0-25.568-0.813-25.568-1.828
		c0-1.039,11.43-1.846,25.568-1.846C266.074,393.619,277.533,394.426,277.533,395.465z"/>
	<path fill="#BCBCBC" d="M277.378,395.465c0,0.992-11.39,1.783-25.451,1.783c-14.054,0-25.414-0.791-25.414-1.783
		c0-1.014,11.36-1.801,25.414-1.801C265.989,393.664,277.378,394.451,277.378,395.465z"/>
	<path fill="#BBBBBB" d="M277.29,395.465c0,0.975-11.35,1.752-25.362,1.752c-14.004,0-25.325-0.777-25.325-1.752
		c0-0.998,11.32-1.771,25.325-1.771C265.939,393.693,277.29,394.467,277.29,395.465z"/>
	<path fill="#BABABA" d="M277.201,395.465c0,0.959-11.31,1.723-25.272,1.723c-13.956,0-25.236-0.764-25.236-1.723
		c0-0.98,11.28-1.74,25.236-1.74C265.891,393.725,277.201,394.484,277.201,395.465z"/>
	<path fill="#B9B9B9" d="M277.112,395.463c0,0.943-11.271,1.693-25.184,1.693c-13.907,0-25.147-0.75-25.147-1.693
		c0-0.961,11.241-1.709,25.147-1.709C265.841,393.754,277.112,394.502,277.112,395.463z"/>
	<path fill="#B8B8B8" d="M277.023,395.463c0,0.926-11.23,1.664-25.095,1.664c-13.858,0-25.059-0.738-25.059-1.664
		c0-0.943,11.201-1.678,25.059-1.678C265.792,393.785,277.023,394.52,277.023,395.463z"/>
	<path fill="#B7B7B7" d="M276.934,395.463c0,0.91-11.191,1.633-25.006,1.633c-13.809,0-24.97-0.723-24.97-1.633
		c0-0.928,11.161-1.648,24.97-1.648C265.743,393.814,276.934,394.535,276.934,395.463z"/>
	<path fill="#B6B6B6" d="M276.845,395.463c0,0.893-11.151,1.604-24.917,1.604c-13.76,0-24.882-0.711-24.882-1.604
		c0-0.91,11.122-1.617,24.882-1.617C265.694,393.846,276.845,394.553,276.845,395.463z"/>
	<path fill="#B5B5B5" d="M276.756,395.463c0,0.875-11.111,1.572-24.828,1.572c-13.711,0-24.793-0.697-24.793-1.572
		c0-0.893,11.082-1.588,24.793-1.588C265.645,393.875,276.756,394.57,276.756,395.463z"/>
	<path fill="#B4B5B4" d="M276.667,395.463c0,0.859-11.072,1.541-24.739,1.541c-13.662,0-24.704-0.682-24.704-1.541
		c0-0.877,11.042-1.557,24.704-1.557C265.596,393.906,276.667,394.586,276.667,395.463z"/>
	<path fill="#B4B4B3" d="M276.578,395.463c0,0.842-11.031,1.512-24.649,1.512c-13.613,0-24.616-0.67-24.616-1.512
		c0-0.859,11.003-1.527,24.616-1.527C265.547,393.936,276.578,394.604,276.578,395.463z"/>
	<path fill="#B3B3B2" d="M276.489,395.463c0,0.826-10.992,1.48-24.56,1.48c-13.564,0-24.527-0.654-24.527-1.48
		c0-0.842,10.963-1.496,24.527-1.496C265.498,393.967,276.489,394.621,276.489,395.463z"/>
	<path fill="#B2B2B1" d="M276.4,395.463c0,0.809-10.952,1.451-24.471,1.451c-13.515,0-24.438-0.643-24.438-1.451
		c0-0.826,10.923-1.467,24.438-1.467C265.448,393.996,276.4,394.637,276.4,395.463z"/>
	<path fill="#B1B1B0" d="M276.312,395.463c0,0.791-10.912,1.42-24.382,1.42c-13.466,0-24.349-0.629-24.349-1.42
		c0-0.809,10.883-1.436,24.349-1.436C265.399,394.027,276.312,394.654,276.312,395.463z"/>
	<path fill="#B0B0AF" d="M276.223,395.463c0,0.775-10.873,1.391-24.293,1.391c-13.417,0-24.261-0.615-24.261-1.391
		c0-0.791,10.844-1.406,24.261-1.406C265.35,394.057,276.223,394.672,276.223,395.463z"/>
	<path fill="#AFAFAE" d="M276.134,395.461c0,0.76-10.833,1.361-24.204,1.361c-13.368,0-24.172-0.602-24.172-1.361
		c0-0.773,10.804-1.373,24.172-1.373C265.301,394.088,276.134,394.688,276.134,395.461z"/>
	<path fill="#AEAEAD" d="M276.045,395.461c0,0.744-10.793,1.332-24.115,1.332c-13.319,0-24.083-0.588-24.083-1.332
		c0-0.756,10.764-1.344,24.083-1.344C265.252,394.117,276.045,394.705,276.045,395.461z"/>
	<path fill="#ADADAD" d="M275.956,395.461c0,0.727-10.753,1.301-24.026,1.301c-13.27,0-23.995-0.574-23.995-1.301
		c0-0.738,10.725-1.313,23.995-1.313C265.203,394.148,275.956,394.723,275.956,395.461z"/>
	<path fill="#ACACAC" d="M275.867,395.461c0,0.709-10.713,1.271-23.937,1.271c-13.221,0-23.906-0.563-23.906-1.271
		c0-0.721,10.685-1.283,23.906-1.283C265.154,394.178,275.867,394.74,275.867,395.461z"/>
	<path fill="#ABABAB" d="M275.778,395.461c0,0.693-10.674,1.24-23.848,1.24c-13.172,0-23.817-0.547-23.817-1.24
		c0-0.705,10.646-1.252,23.817-1.252C265.104,394.209,275.778,394.756,275.778,395.461z"/>
	<path fill="#AAAAAA" d="M275.689,395.461c0,0.676-10.634,1.211-23.759,1.211c-13.123,0-23.729-0.535-23.729-1.211
		c0-0.688,10.606-1.223,23.729-1.223C265.056,394.238,275.689,394.773,275.689,395.461z"/>
	<path fill="#A9A9A9" d="M275.601,395.461c0,0.658-10.594,1.18-23.67,1.18c-13.074,0-23.64-0.521-23.64-1.18
		c0-0.67,10.566-1.191,23.64-1.191C265.006,394.27,275.601,394.791,275.601,395.461z"/>
	<path fill="#A9A8A8" d="M275.512,395.461c0,0.643-10.555,1.148-23.581,1.148c-13.025,0-23.551-0.506-23.551-1.148
		c0-0.654,10.526-1.162,23.551-1.162C264.957,394.299,275.512,394.807,275.512,395.461z"/>
	<path fill="#A8A7A7" d="M275.423,395.461c0,0.625-10.515,1.119-23.492,1.119c-12.976,0-23.462-0.494-23.462-1.119
		c0-0.637,10.487-1.131,23.462-1.131C264.908,394.33,275.423,394.824,275.423,395.461z"/>
	<path fill="#A7A6A6" d="M275.334,395.461c0,0.609-10.475,1.088-23.403,1.088c-12.927,0-23.374-0.479-23.374-1.088
		c0-0.619,10.447-1.102,23.374-1.102C264.859,394.359,275.334,394.842,275.334,395.461z"/>
	<path fill="#A6A6A5" d="M275.245,395.459c0,0.594-10.435,1.061-23.314,1.061c-12.878,0-23.285-0.467-23.285-1.061
		c0-0.602,10.407-1.068,23.285-1.068C264.81,394.391,275.245,394.857,275.245,395.459z"/>
	<path fill="#A5A5A4" d="M275.156,395.459c0,0.576-10.396,1.029-23.225,1.029c-12.829,0-23.196-0.453-23.196-1.029
		c0-0.584,10.367-1.039,23.196-1.039C264.761,394.42,275.156,394.875,275.156,395.459z"/>
	<path fill="#A4A4A3" d="M275.067,395.459c0,0.561-10.355,1-23.136,1c-12.78,0-23.108-0.439-23.108-1
		c0-0.566,10.328-1.008,23.108-1.008C264.712,394.451,275.067,394.893,275.067,395.459z"/>
	<path fill="#A3A3A3" d="M274.978,395.459c0,0.543-10.315,0.969-23.046,0.969s-23.02-0.426-23.02-0.969
		c0-0.551,10.289-0.979,23.02-0.979S274.978,394.908,274.978,395.459z"/>
	<path fill="#A2A2A2" d="M274.889,395.459c0,0.527-10.276,0.939-22.958,0.939c-12.682,0-22.931-0.412-22.931-0.939
		c0-0.533,10.249-0.947,22.931-0.947C264.613,394.512,274.889,394.926,274.889,395.459z"/>
	<path fill="#A2A1A1" d="M274.8,395.459c0,0.51-10.236,0.908-22.869,0.908s-22.842-0.398-22.842-0.908
		c0-0.516,10.209-0.918,22.842-0.918S274.8,394.943,274.8,395.459z"/>
	<path fill="#A1A0A0" d="M274.711,395.459c0,0.492-10.196,0.879-22.779,0.879c-12.584,0-22.753-0.387-22.753-0.879
		c0-0.498,10.169-0.887,22.753-0.887C264.515,394.572,274.711,394.961,274.711,395.459z"/>
	<path fill="#A09F9F" d="M274.623,395.459c0,0.477-10.156,0.848-22.69,0.848c-12.535,0-22.665-0.371-22.665-0.848
		c0-0.482,10.129-0.857,22.665-0.857C264.466,394.602,274.623,394.977,274.623,395.459z"/>
	<path fill="#9F9F9E" d="M274.534,395.459c0,0.459-10.117,0.818-22.602,0.818c-12.486,0-22.576-0.359-22.576-0.818
		c0-0.465,10.09-0.826,22.576-0.826C264.417,394.633,274.534,394.994,274.534,395.459z"/>
	<path fill="#9E9E9D" d="M274.445,395.459c0,0.441-10.077,0.787-22.512,0.787c-12.438,0-22.487-0.346-22.487-0.787
		c0-0.447,10.05-0.797,22.487-0.797C264.368,394.662,274.445,395.012,274.445,395.459z"/>
	<path fill="#9D9D9D" d="M274.356,395.457c0,0.428-10.037,0.758-22.423,0.758c-12.388,0-22.398-0.33-22.398-0.758
		c0-0.43,10.01-0.764,22.398-0.764C264.319,394.693,274.356,395.027,274.356,395.457z"/>
	<path fill="#9C9C9C" d="M274.267,395.457c0,0.41-9.998,0.729-22.334,0.729c-12.339,0-22.31-0.318-22.31-0.729
		c0-0.412,9.971-0.734,22.31-0.734C264.27,394.723,274.267,395.045,274.267,395.457z"/>
	<path fill="#9C9B9B" d="M274.178,395.457c0,0.395-9.958,0.697-22.246,0.697c-12.29,0-22.221-0.303-22.221-0.697
		s9.931-0.703,22.221-0.703C264.221,394.754,274.178,395.063,274.178,395.457z"/>
	<path fill="#9B9A9A" d="M274.089,395.457c0,0.377-9.918,0.668-22.156,0.668c-12.241,0-22.133-0.291-22.133-0.668
		c0-0.379,9.892-0.674,22.133-0.674C264.171,394.783,274.089,395.078,274.089,395.457z"/>
	<path fill="#9A9A99" d="M274,395.457c0,0.359-9.878,0.637-22.067,0.637c-12.192,0-22.044-0.277-22.044-0.637
		c0-0.361,9.852-0.643,22.044-0.643C264.122,394.814,274,395.096,274,395.457z"/>
	<path fill="#999998" d="M273.912,395.457c0,0.344-9.838,0.607-21.979,0.607c-12.143,0-21.955-0.264-21.955-0.607
		s9.812-0.613,21.955-0.613C264.073,394.844,273.912,395.113,273.912,395.457z"/>
	<path fill="#989898" d="M273.823,395.457c0,0.326-9.799,0.576-21.889,0.576c-12.094,0-21.867-0.25-21.867-0.576
		c0-0.328,9.772-0.582,21.867-0.582C264.024,394.875,273.823,395.129,273.823,395.457z"/>
	<path fill="#979797" d="M273.734,395.457c0,0.311-9.759,0.547-21.8,0.547c-12.045,0-21.778-0.236-21.778-0.547
		s9.732-0.553,21.778-0.553C263.975,394.904,273.734,395.146,273.734,395.457z"/>
	<path fill="#979696" d="M273.645,395.457c0,0.293-9.719,0.516-21.711,0.516c-11.996,0-21.689-0.223-21.689-0.516
		s9.693-0.521,21.689-0.521C263.926,394.936,273.645,395.164,273.645,395.457z"/>
	<path fill="#969695" d="M273.556,395.457c0,0.275-9.68,0.486-21.623,0.486c-11.947,0-21.6-0.211-21.6-0.486s9.653-0.492,21.6-0.492
		C263.876,394.965,273.556,395.182,273.556,395.457z"/>
	<path fill="#959594" d="M273.467,395.457c0,0.26-9.639,0.455-21.533,0.455c-11.898,0-21.512-0.195-21.512-0.455
		s9.613-0.461,21.512-0.461C263.828,394.996,273.467,395.197,273.467,395.457z"/>
	<path fill="#949494" d="M273.378,395.455c0,0.244-9.6,0.428-21.444,0.428c-11.849,0-21.423-0.184-21.423-0.428
		c0-0.24,9.574-0.43,21.423-0.43C263.778,395.025,273.378,395.215,273.378,395.455z"/>
	<path fill="#939393" d="M273.289,395.455c0,0.227-9.56,0.396-21.355,0.396c-11.8,0-21.334-0.17-21.334-0.396
		c0-0.223,9.534-0.398,21.334-0.398C263.729,395.057,273.289,395.232,273.289,395.455z"/>
	<path fill="#939392" d="M273.2,395.455c0,0.211-9.52,0.365-21.266,0.365c-11.751,0-21.246-0.154-21.246-0.365
		c0-0.207,9.495-0.369,21.246-0.369C263.68,395.086,273.2,395.248,273.2,395.455z"/>
	<path fill="#929291" d="M273.111,395.455c0,0.193-9.48,0.336-21.177,0.336c-11.702,0-21.157-0.143-21.157-0.336
		c0-0.189,9.455-0.338,21.157-0.338C263.631,395.117,273.111,395.266,273.111,395.455z"/>
	<path fill="#919190" d="M273.022,395.455c0,0.178-9.44,0.305-21.088,0.305c-11.653,0-21.068-0.127-21.068-0.305
		c0-0.172,9.415-0.309,21.068-0.309C263.582,395.146,273.022,395.283,273.022,395.455z"/>
	<path fill="#909090" d="M272.934,395.455c0,0.16-9.401,0.275-20.999,0.275c-11.604,0-20.979-0.115-20.979-0.275
		c0-0.156,9.375-0.277,20.979-0.277C263.533,395.178,272.934,395.299,272.934,395.455z"/>
	<path fill="#908F8F" d="M272.845,395.455c0,0.143-9.361,0.244-20.91,0.244c-11.556,0-20.891-0.102-20.891-0.244
		c0-0.139,9.335-0.248,20.891-0.248C263.484,395.207,272.845,395.316,272.845,395.455z"/>
	<path fill="#8F8F8E" d="M272.756,395.455c0,0.127-9.321,0.215-20.821,0.215c-11.506,0-20.802-0.088-20.802-0.215
		c0-0.121,9.296-0.217,20.802-0.217C263.435,395.238,272.756,395.334,272.756,395.455z"/>
</g>
<path fill="#808080" d="M388.85,343.62h-16.096c-3.214,0-5.629-0.674-7.078-3.089l-25.261-41.107v40.565
	c0,1.881-2.093,3.631-4.505,3.631h-12.711c-2.415,0-4.505-1.75-4.505-3.631v-82.745c0-1.881,2.09-3.627,4.505-3.627h12.711
	c2.412,0,4.505,1.746,4.505,3.627v31.566l23.492-32.104c1.769-2.416,3.861-3.089,7.078-3.089h14.644c3.539,0,4.823,2.416,2.737,4.97
	l-28.48,34.791l31.694,45.271C393.673,341.604,392.385,343.62,388.85,343.62z M414.903,343.62h-12.228
	c-2.415,0-4.348-1.614-4.348-3.631v-47.951h-5.307c-2.415,0-4.348-1.617-4.348-3.631v-5.906c0-2.017,1.933-3.631,4.348-3.631h21.882
	c2.412,0,4.345,1.614,4.345,3.631v57.488C419.248,342.006,417.315,343.62,414.903,343.62z M408.466,268.798
	c-6.917,0-12.549-4.707-12.549-10.482c0-5.775,5.632-10.474,12.549-10.474s12.554,4.699,12.554,10.474
	C421.02,264.092,415.383,268.798,408.466,268.798z M486.589,343.62h-8.366c-2.416,0-4.666-1.479-5.311-3.631l-0.963-3.491
	c-3.382,4.033-9.014,8.059-18.665,8.059c-13.036,0-26.548-5.504-26.548-34.52c0-10.481,2.093-20.686,9.65-27.002
	c3.217-2.687,9.977-5.775,17.059-5.775c8.366,0,13.029,2.818,16.572,6.448v-31.569c0-2.013,1.932-3.627,4.344-3.627h12.228
	c2.415,0,4.344,1.614,4.344,3.627v87.851C490.933,342.006,489.004,343.62,486.589,343.62z M459.879,292.17
	c-8.044,0-11.426,5.644-11.426,18.805c0,14.243,4.67,18.002,11.426,18.002c6.596,0,10.943-4.97,10.943-18.002
	C470.822,297.678,466.636,292.17,459.879,292.17z"/>
<path fill="#616262" d="M556.667,343.62h-10.46c-2.737,0-4.021-1.347-4.505-3.763l-0.644-3.225
	c-4.022,4.835-11.262,7.924-21.077,7.924c-14.801,0-22.044-8.19-22.044-20.956c0-11.551,8.206-20.415,27.994-21.355l12.07-0.538
	c0-6.986-1.61-9.805-10.781-9.805c-5.629,0-12.066,1.208-16.089,2.284c-2.898,0.802-4.827-0.268-5.311-2.148l-2.251-7.524
	c-0.644-2.284,0.161-3.627,2.734-4.297c5.311-1.479,14.965-2.957,21.882-2.957c29.766,0,30.731,15.715,30.731,27.405v21.219
	c0,2.826-0.161,6.585,0.645,10.211l0.801,3.895C560.847,342.273,559.563,343.62,556.667,343.62z M538.002,313.126l-7.239,0.271
	c-7.399,0.264-12.069,3.353-12.069,10.204c0,4.838,4.187,6.99,6.917,6.99c7.242,0,12.392-4.436,12.392-8.732V313.126z
	 M623.869,338.781c-3.221,2.687-9.176,5.775-16.254,5.775c-9.493,0-13.676-2.953-17.376-6.178v28.078
	c0,2.014-1.929,3.623-4.345,3.623h-12.231c-2.411,0-4.34-1.609-4.34-3.623v-83.956c0-2.017,1.929-3.631,4.34-3.631h8.528
	c2.415,0,4.67,1.479,5.313,3.631l1.124,4.161c2.733-4.835,9.654-9.402,18.343-9.402c13.354,0,26.552,5.508,26.552,34.523
	C633.523,322.261,631.431,332.469,623.869,338.781z M600.373,292.844c-6.595,0-10.939,4.97-10.939,17.999
	c0,13.3,4.184,18.804,10.939,18.804c8.044,0,11.265-5.64,11.265-18.804C611.638,296.605,607.133,292.844,600.373,292.844z
	 M675.425,342.814c-3.86,1.072-7.726,1.742-13.354,1.742c-13.358,0-17.86-6.445-17.86-16.656v-35.862h-5.31
	c-2.412,0-4.345-1.617-4.345-3.631v-5.906c0-2.017,1.933-3.631,4.345-3.631h5.31v-14.508c0-2.551,0.806-4.834,3.861-5.373
	l11.744-2.284c3.704-0.673,5.311,1.076,5.311,4.3v17.864h6.921c2.412,0,4.341,1.614,4.341,3.631v5.906
	c0,2.014-1.929,3.631-4.341,3.631h-6.921v31.295c0,3.627,1.446,5.241,3.218,5.241c1.449,0,2.093,0,3.221-0.268
	c2.572-0.541,4.179,0.268,4.662,2.416l1.933,8.461C678.481,340.934,677.515,342.273,675.425,342.814z"/>
<g>
	<path fill="#A7A9AC" d="M686.119,248.67h-3.691v-2.125h9.725v2.125h-3.602v10.016h-2.432V248.67z M693.593,246.546h3.812
		l2.161,8.376h0.061l2.161-8.376h3.812v12.14h-2.312v-9.682h-0.06l-2.552,9.682h-2.19l-2.521-9.682h-0.06v9.682h-2.312V246.546z"/>
</g>
</svg>
