<?xml version="1.0" encoding="utf-8"?>
<!-- Generator: Adobe Illustrator 15.0.0, SVG Export Plug-In . SVG Version: 6.00 Build 0)  -->
<!DOCTYPE svg PUBLIC "-//W3C//DTD SVG 1.1//EN" "http://www.w3.org/Graphics/SVG/1.1/DTD/svg11.dtd">
<svg version="1.1" xmlns="http://www.w3.org/2000/svg" xmlns:xlink="http://www.w3.org/1999/xlink" x="0px" y="0px"
	 width="841.89px" height="595.28px" viewBox="0 0 841.89 595.28" enable-background="new 0 0 841.89 595.28" xml:space="preserve">
<g id="Background">
	<rect width="841.89" height="595.28"/>
</g>
<g id="Logo">
	
		<linearGradient id="SVGID_1_" gradientUnits="userSpaceOnUse" x1="-491.7949" y1="478.8154" x2="-448.893" y2="512.3341" gradientTransform="matrix(-0.8622 0.4933 0.4115 0.9243 -383.5304 -5.4404)">
		<stop  offset="0.1273" style="stop-color:#BFD730"/>
		<stop  offset="0.8242" style="stop-color:#77AF38"/>
	</linearGradient>
	<path fill="url(#SVGID_1_)" d="M201.415,212.305c-4.787,15.06,2.306,30.988,15.833,35.577c13.556,4.579,28.407-3.923,33.194-18.991
		c4.794-15.071-2.306-30.999-15.84-35.577C221.072,188.739,206.213,197.23,201.415,212.305z"/>
	<g>
		
			<linearGradient id="SVGID_2_" gradientUnits="userSpaceOnUse" x1="-285.4702" y1="144.501" x2="-196.7192" y2="292.2075" gradientTransform="matrix(-0.9823 -0.1875 -0.1875 0.9823 25.4002 32.4041)">
			<stop  offset="0.1273" style="stop-color:#CA64A6"/>
			<stop  offset="1" style="stop-color:#8C4D97"/>
		</linearGradient>
		<path fill="url(#SVGID_2_)" d="M190.326,223.669c-0.11,1.482-0.103,3.03,0.029,4.619c0.344,5.984,2.25,11.444,5.783,16.513
			c0.153,0.282,0.45,0.714,0.878,1.281c3.528,4.688,7.902,8.052,13.168,10.05c0.106,0.055,0.19,0.087,0.234,0.099
			c1.362,0.476,2.767,0.875,4.246,1.197c0.117,0.062,0.322,0.113,0.6,0.15c0.198,0.019,0.198,0.019,0.198,0.019
			c0.125,0.007,0.205,0.157,0.183,0.333c0,0,0-0.004-0.015,0.103c-1.091,7.279-1.742,11.042-1.742,11.049
			c-1.651,9.812-10.445,16.213-19.324,14.559c-3.082-0.556-6.156-1.105-9.219-1.654c0.238-2.21,0.311-4.344,0.223-6.397
			c-0.037-0.004-0.037,0-0.037,0c-0.007-0.037-0.007-0.099-0.004-0.139l0,0c-0.197-3.155-0.875-6.288-2.031-9.446
			c-0.864-2.262-0.864-2.262-0.864-2.262c-1.544-2.521-3.191-5.105-3.675-5.771l0,0c-3.542-4.699-7.891-7.967-13.051-9.922
			c-1.285-0.52-2.693-0.962-4.253-1.325c-0.282-0.041-0.461-0.091-0.578-0.139C161,246.561,161,246.561,161,246.561
			c-0.15-0.022-0.3-0.044-0.333-0.044c-0.037-0.003-0.073-0.011-0.092-0.011c-0.015-0.007-0.022-0.037-0.015-0.066
			c0.004-0.029,0.011-0.073,0.015-0.095c0.004-0.018,0.048-0.252,0.095-0.512c0.048-0.264,0.099-0.545,0.114-0.633
			s1.09-5.819,2.372-12.81c1.292-6.946,7.963-12.118,14.826-11.642c6.866,0.523,12.484,0.831,12.484,0.845
			c0,0.019,0,0.062-0.007,0.103l0,0C190.362,222.578,190.318,223.222,190.326,223.669z M259.914,227.728
			c-0.264,1.731-0.699,3.495-1.248,5.263c-1.991,6.782-5.61,12.517-10.749,17.212c-0.245,0.271-0.673,0.663-1.281,1.175
			c-5.014,4.246-10.471,6.599-16.257,7.272c-0.139,0.033-0.22,0.033-0.264,0.029c-1.479,0.143-2.994,0.176-4.523,0.121
			c-0.125,0.04-0.337,0.04-0.615-0.004c-0.205-0.025-0.205-0.029-0.205-0.025c-0.132-0.015-0.256,0.113-0.278,0.282
			c0,0,0,0.003-0.015,0.103c-1.068,7.422-1.72,11.261-1.712,11.265c-1.64,9.878,4.326,19.236,13.541,21.208
			c3.206,0.659,6.427,1.333,9.662,2.024c0.604-2.441,1.31-4.751,2.145-6.925c0.051,0.015,0.051,0.011,0.051,0.015
			c0.015-0.044,0.029-0.103,0.037-0.143l0,0c1.373-3.298,3.191-6.438,5.482-9.508c1.698-2.16,1.694-2.171,1.694-2.167
			c2.467-2.266,5.076-4.652,5.805-5.248l0,0c5.303-4.125,10.947-6.599,17.081-7.207c1.53-0.172,3.184-0.216,4.977-0.106
			c0.3,0.047,0.535,0.055,0.659,0.007c0.08,0.029,0.08,0.026,0.08,0.029c0.176,0.025,0.352,0.051,0.388,0.059
			c0.037,0,0.081,0.011,0.099,0.011c0.019,0,0.041-0.029,0.044-0.069c0.004-0.044,0.011-0.095,0.019-0.121
			c0-0.022,0.033-0.322,0.066-0.663c0.037-0.34,0.081-0.71,0.095-0.816c0.008-0.11,0.846-7.54,1.516-16.612
			c0.651-9.095-5.3-17.194-12.634-17.813c-7.378-0.647-13.278-1.061-13.278-1.032c0,0.022-0.007,0.069-0.011,0.106l0,0
			C260.155,226.483,260.034,227.237,259.914,227.728z M235.678,373.354L235.678,373.354c-0.007,0.035-0.015,0.088-0.018,0.102
			c-0.004,0.018,5.537,2.492,12.228,5.578c6.639,3.125,13.841-1.322,16.026-9.83c2.141-8.475,3.824-15.498,3.846-15.6
			c0.022-0.1,0.11-0.451,0.183-0.77s0.143-0.603,0.146-0.628c0.007-0.022,0.018-0.077,0.029-0.113
			c0.007-0.041,0.007-0.081-0.011-0.085c-0.015-0.007-0.059-0.021-0.091-0.032c-0.037-0.015-0.19-0.07-0.344-0.125
			c0,0,0-0.004-0.081-0.036c-0.117-0.092-0.307-0.187-0.596-0.289c-1.592-0.754-3.027-1.593-4.33-2.485
			c-5.219-3.44-9.52-8.271-12.993-14.376l0,0c-0.468-0.863-2.064-4.172-3.586-7.294c0,0,0.007-0.004-0.813-2.708
			c-1.105-3.777-1.728-7.415-1.867-11.013l0,0c0.007-0.044,0.007-0.113,0-0.153c0,0,0,0-0.037-0.008
			c-0.044-2.331,0.066-4.747,0.348-7.246c-3.209-0.787-6.405-1.556-9.585-2.306c-9.186-2.094-18.021,4.201-19.858,13.691
			c0-0.004-0.71,3.718-1.998,10.756c-0.019,0.106-0.015,0.106-0.019,0.106c-0.025,0.164,0.048,0.322,0.172,0.344
			c0,0,0-0.004,0.197,0.066c0.275,0.069,0.476,0.164,0.593,0.241c1.464,0.563,2.858,1.2,4.208,1.914
			c0.044,0.025,0.125,0.065,0.227,0.139c5.226,2.946,9.545,7.327,12.908,13.238c0.406,0.71,0.685,1.248,0.823,1.592
			c3.338,6.372,4.941,13.079,4.868,19.938c0.022,1.826-0.081,3.576-0.304,5.213C235.935,371.676,235.839,372.391,235.678,373.354z
			 M167.847,347.005c0.38-1.339,0.918-2.657,1.559-3.992c2.35-5.095,6.061-9.249,11.155-12.499c0.242-0.187,0.667-0.461,1.267-0.815
			c4.955-2.91,10.27-4.319,15.935-4.129c0.136-0.004,0.212-0.007,0.26,0.011c1.438,0.07,2.924,0.253,4.424,0.538
			c0.125-0.021,0.33,0.012,0.608,0.088c0.201,0.063,0.201,0.063,0.201,0.063c0.125,0.033,0.252-0.069,0.282-0.23
			c0,0,0,0,0.015-0.092c1.251-6.902,1.947-10.555,1.947-10.555c1.812-9.446-4.106-18.771-12.985-20.491
			c-3.089-0.619-6.163-1.229-9.23-1.826c-0.571,2.137-1.252,4.132-2.053,5.998c-0.047-0.011-0.047-0.011-0.047-0.015
			c-0.015,0.033-0.029,0.092-0.037,0.121l0,0c-1.318,2.825-3.063,5.453-5.271,7.931c-1.625,1.731-1.625,1.731-1.625,1.731
			c-2.346,1.771-4.831,3.564-5.526,4c0,0.004,0,0.004,0,0c-5.028,3.034-10.324,4.534-15.927,4.604
			c-1.398,0.041-2.898-0.029-4.509-0.219c-0.271-0.056-0.483-0.077-0.601-0.044c-0.066-0.033-0.066-0.033-0.066-0.033
			c-0.161-0.025-0.314-0.059-0.344-0.063c-0.037-0.004-0.073-0.011-0.092-0.019c-0.018-0.003-0.037,0.026-0.047,0.056
			c-0.007,0.029-0.015,0.069-0.015,0.088c-0.007,0.025-0.047,0.248-0.095,0.505c-0.047,0.26-0.103,0.538-0.125,0.618
			c-0.015,0.08-1.094,5.724-2.394,12.542c-1.303,6.829,3.309,13.432,10.226,14.962c6.917,1.526,12.568,3.008,12.568,2.99
			c0-0.019,0.007-0.056,0.019-0.085l0,0C167.518,347.945,167.693,347.371,167.847,347.005z"/>
	</g>
	<linearGradient id="SVGID_3_" gradientUnits="userSpaceOnUse" x1="404.813" y1="247.8423" x2="404.813" y2="344.5566">
		<stop  offset="0.1273" style="stop-color:#BFD730"/>
		<stop  offset="0.8242" style="stop-color:#77AF38"/>
	</linearGradient>
	<path fill="url(#SVGID_3_)" d="M388.85,343.62h-16.096c-3.214,0-5.629-0.674-7.078-3.089l-25.261-41.107v40.565
		c0,1.881-2.093,3.631-4.505,3.631h-12.711c-2.415,0-4.505-1.75-4.505-3.631v-82.745c0-1.881,2.09-3.627,4.505-3.627h12.711
		c2.412,0,4.505,1.746,4.505,3.627v31.566l23.492-32.104c1.769-2.416,3.861-3.089,7.078-3.089h14.644
		c3.539,0,4.823,2.416,2.737,4.97l-28.48,34.791l31.694,45.271C393.673,341.604,392.385,343.62,388.85,343.62z M414.903,343.62
		h-12.228c-2.415,0-4.348-1.614-4.348-3.631v-47.951h-5.307c-2.415,0-4.348-1.617-4.348-3.631v-5.906
		c0-2.017,1.933-3.631,4.348-3.631h21.882c2.412,0,4.345,1.614,4.345,3.631v57.488C419.248,342.006,417.315,343.62,414.903,343.62z
		 M408.466,268.798c-6.917,0-12.549-4.707-12.549-10.482c0-5.775,5.632-10.474,12.549-10.474s12.554,4.699,12.554,10.474
		C421.02,264.092,415.383,268.798,408.466,268.798z M486.589,343.62h-8.366c-2.416,0-4.666-1.479-5.311-3.631l-0.963-3.491
		c-3.382,4.033-9.014,8.059-18.665,8.059c-13.036,0-26.548-5.504-26.548-34.52c0-10.481,2.093-20.686,9.65-27.002
		c3.217-2.687,9.977-5.775,17.059-5.775c8.366,0,13.029,2.818,16.572,6.448v-31.569c0-2.013,1.932-3.627,4.344-3.627h12.228
		c2.415,0,4.344,1.614,4.344,3.627v87.851C490.933,342.006,489.004,343.62,486.589,343.62z M459.879,292.17
		c-8.044,0-11.426,5.644-11.426,18.805c0,14.243,4.67,18.002,11.426,18.002c6.596,0,10.943-4.97,10.943-18.002
		C470.822,297.678,466.636,292.17,459.879,292.17z"/>
	<linearGradient id="SVGID_4_" gradientUnits="userSpaceOnUse" x1="588.0781" y1="256.563" x2="588.0781" y2="370.0806">
		<stop  offset="0.1273" style="stop-color:#CA64A6"/>
		<stop  offset="1" style="stop-color:#8C4D97"/>
	</linearGradient>
	<path fill="url(#SVGID_4_)" d="M556.667,343.62h-10.46c-2.737,0-4.021-1.347-4.505-3.763l-0.644-3.225
		c-4.022,4.835-11.262,7.924-21.077,7.924c-14.801,0-22.044-8.19-22.044-20.956c0-11.551,8.206-20.415,27.994-21.355l12.07-0.538
		c0-6.986-1.61-9.805-10.781-9.805c-5.629,0-12.066,1.208-16.089,2.284c-2.898,0.802-4.827-0.268-5.311-2.148l-2.251-7.524
		c-0.644-2.284,0.161-3.627,2.734-4.297c5.311-1.479,14.965-2.957,21.882-2.957c29.766,0,30.731,15.715,30.731,27.405v21.219
		c0,2.826-0.161,6.585,0.645,10.211l0.801,3.895C560.847,342.273,559.563,343.62,556.667,343.62z M538.002,313.126l-7.239,0.271
		c-7.399,0.264-12.069,3.353-12.069,10.204c0,4.838,4.187,6.99,6.917,6.99c7.242,0,12.392-4.436,12.392-8.732V313.126z
		 M623.869,338.781c-3.221,2.687-9.176,5.775-16.254,5.775c-9.493,0-13.676-2.953-17.376-6.178v28.078
		c0,2.014-1.929,3.623-4.345,3.623h-12.231c-2.411,0-4.34-1.609-4.34-3.623v-83.956c0-2.017,1.929-3.631,4.34-3.631h8.528
		c2.415,0,4.67,1.479,5.313,3.631l1.124,4.161c2.733-4.835,9.654-9.402,18.343-9.402c13.354,0,26.552,5.508,26.552,34.523
		C633.523,322.261,631.431,332.469,623.869,338.781z M600.373,292.844c-6.595,0-10.939,4.97-10.939,17.999
		c0,13.3,4.184,18.804,10.939,18.804c8.044,0,11.265-5.64,11.265-18.804C611.638,296.605,607.133,292.844,600.373,292.844z
		 M675.425,342.814c-3.86,1.072-7.726,1.742-13.354,1.742c-13.358,0-17.86-6.445-17.86-16.656v-35.862h-5.31
		c-2.412,0-4.345-1.617-4.345-3.631v-5.906c0-2.017,1.933-3.631,4.345-3.631h5.31v-14.508c0-2.551,0.806-4.834,3.861-5.373
		l11.744-2.284c3.704-0.673,5.311,1.076,5.311,4.3v17.864h6.921c2.412,0,4.341,1.614,4.341,3.631v5.906
		c0,2.014-1.929,3.631-4.341,3.631h-6.921v31.295c0,3.627,1.446,5.241,3.218,5.241c1.449,0,2.093,0,3.221-0.268
		c2.572-0.541,4.179,0.268,4.662,2.416l1.933,8.461C678.481,340.934,677.515,342.273,675.425,342.814z"/>
	<g>
		<path fill="#A7A9AC" d="M686.119,248.67h-3.691v-2.125h9.725v2.125h-3.602v10.016h-2.432V248.67z M693.593,246.546h3.812
			l2.161,8.376h0.061l2.161-8.376h3.812v12.14h-2.312v-9.682h-0.06l-2.552,9.682h-2.19l-2.521-9.682h-0.06v9.682h-2.312V246.546z"/>
	</g>
	
		<radialGradient id="SVGID_5_" cx="379.0034" cy="1670.2012" r="6.2271" gradientTransform="matrix(5.6318 0 0 0.7867 -1882.7407 -918.9395)" gradientUnits="userSpaceOnUse">
		<stop  offset="0" style="stop-color:#282829"/>
		<stop  offset="0.235" style="stop-color:#202021"/>
		<stop  offset="0.7418" style="stop-color:#1A1A1B"/>
		<stop  offset="0.956" style="stop-color:#000000"/>
	</radialGradient>
	<path fill-rule="evenodd" clip-rule="evenodd" fill="url(#SVGID_5_)" d="M286.833,395.064c0,2.706-15.706,4.897-35.084,4.897
		c-19.376,0-35.083-2.191-35.083-4.897s15.707-4.897,35.083-4.897C271.129,390.167,286.833,392.358,286.833,395.064z"/>
</g>
</svg>
